<svg width="57" height="36" viewBox="0 0 57 36" fill="none" xmlns="http://www.w3.org/2000/svg">
<g clip-path="url(#clip0_1499_26143)">
<path d="M54.9698 9.97198C54.3207 9.48672 54.4117 9.56557 52.8286 8.41309L49.7654 10.4512C51.2636 11.7796 51.9854 12.374 52.6163 12.8593C52.8771 13.0594 54.1327 14.1816 54.4239 14.3878L56.747 11.1245C56.5287 10.9668 55.1821 10.1236 54.9698 9.96591V9.97198Z" fill="black"/>
<path d="M56.3589 7.53362H54.7029L54.5938 0.0242629L56.371 0L56.3589 7.53362Z" fill="black"/>
<path d="M34.2613 1.27675L32.001 3.53711L34.2613 5.79747L36.5217 3.53711L34.2613 1.27675Z" fill="black"/>
<path d="M12.4164 19.7123L10.156 21.9727L12.4164 24.233L14.6767 21.9727L12.4164 19.7123Z" fill="black"/>
<path d="M16.026 4.81191L13.7656 7.07227L16.026 9.33263L18.2863 7.07227L16.026 4.81191Z" fill="black"/>
<path d="M19.5533 4.81484L17.293 7.0752L19.5533 9.33556L21.8137 7.0752L19.5533 4.81484Z" fill="black"/>
<path d="M6.75951 12.1982C6.75951 12.1982 6.74132 17.2874 6.74132 19.5742C6.74132 20.4597 7.03854 22.0854 5.13997 23.9657C3.84191 25.2456 1.7553 25.1182 0.0387023 25.1122C-0.00982339 23.7959 -0.0158891 21.7396 0.0387023 20.5993C5.26735 20.5993 5.70408 21.3757 5.70408 17.16L5.66769 12.1982H6.75951Z" fill="black"/>
<path d="M52.9379 18.1729C52.5254 15.0369 50.1234 15.134 45.4164 15.14C39.1687 15.1461 31.5198 14.8731 24.6474 14.9277C23.1855 14.9399 22.7245 14.5941 22.7609 13.3324C22.7973 12.0829 22.9793 12.2709 29.5121 12.2709C33.3699 12.2709 40.1877 12.5136 44.3003 12.5136C50.3963 12.5136 51.0029 11.628 51.6095 10.9729C52.5618 9.93564 52.6467 8.94693 52.6103 7.81264C52.5618 5.9626 52.6164 0 52.6164 0H50.6935C50.7299 0 50.8391 2.85089 50.9058 6.37507C50.9362 7.83084 50.9968 8.63758 51.1788 9.29268C51.1788 9.29268 49.8383 9.00152 44.5186 9.00152C40.3515 9.00152 33.5579 8.78316 29.6394 8.78316C22.7245 8.78316 21.4325 9.74154 21.4386 13.569C21.4447 16.1166 22.1422 18.4883 24.9264 18.5429C30.6221 18.646 42.9355 18.7067 46.8721 18.5429C47.6971 18.5065 48.4735 18.4458 50.0142 18.4094C51.8824 18.367 51.84 19.75 51.84 20.4233C49.5107 20.6659 43.5906 20.9692 35.9175 21.1208C34.025 21.1572 26.2487 21.2785 21.9057 20.5749C20.462 20.3444 19.4369 19.1616 19.3823 17.263C19.3581 16.3956 19.3641 12.7744 19.3823 12.1982H17.6839C17.6839 12.1982 17.6354 14.7094 17.6839 17.3722C17.7082 18.7491 17.7385 19.1859 17.7749 20.0169C17.8841 22.4674 19.9889 24.3356 22.6214 24.5601C25.5754 24.8088 29.6637 24.8634 31.3257 24.8634C37.5067 24.8634 42.4988 24.5358 46.211 24.2265C48.1459 24.0688 52.8529 23.6138 52.9136 20.3262C52.9136 20.3262 52.9682 18.4458 52.9318 18.1729H52.9379Z" fill="black"/>
<path d="M52.5921 5.81683C52.5921 5.81683 52.5739 8.27952 53.7446 9.08019L53.1501 10.4146L51.8157 8.11574L52.2099 5.25879L52.5982 5.81683H52.5921Z" fill="black"/>
<path d="M49.5652 12.113C49.5652 12.113 51.0452 11.6034 51.9551 12.3313L53.2774 10.5723H49.6016L49.5713 12.113H49.5652Z" fill="black"/>
<path d="M17.872 14.8854L17.1684 17.9121C17.1684 17.9121 15.8946 19.0222 13.8019 18.4399C11.7092 17.8515 11.3938 16.7415 11.9094 12.1982H12.7222C12.7222 12.1982 12.9163 13.3143 13.1893 13.933C13.3591 14.3152 13.7291 14.8186 14.3781 15.0552C15.0272 15.2918 16.7862 15.316 17.872 14.8914V14.8854Z" fill="black"/>
<path d="M11.8849 14.8854L11.1813 17.9121C11.1813 17.9121 9.90752 19.0222 7.81484 18.4399C5.72217 17.8515 5.40675 16.7415 5.92234 12.1982H6.73515C6.73515 12.1982 6.92925 13.3143 7.20221 13.933C7.37205 14.3152 7.74205 14.8186 8.39109 15.0552C9.04012 15.2918 10.7992 15.316 11.8849 14.8914V14.8854Z" fill="black"/>
<path d="M41.8921 6.20579C41.2188 6.20579 40.406 6.15726 39.3931 6.05414L39.5083 4.94412C42.1105 5.21101 43.2327 5.08363 44.2942 4.76821C44.5065 4.70756 44.7188 4.62264 44.9129 4.52558C43.5723 3.22752 43.7907 2.28127 44.2274 1.71109C44.5975 1.21977 45.3617 0.874023 46.0775 0.874023H46.0896C46.6355 0.874023 47.0965 1.08026 47.3816 1.45027C47.8729 2.0811 47.8426 3.00309 47.3149 3.85229C46.7265 4.79248 45.7681 5.50216 44.6156 5.84184C43.8574 6.06628 43.081 6.20579 41.8982 6.20579H41.8921ZM46.0896 1.99011C45.6953 1.99011 45.2647 2.20241 45.1252 2.38439C44.8765 2.71194 45.1252 3.20326 45.853 3.85836L45.7378 3.98574C45.9865 3.76737 46.2049 3.51868 46.3747 3.25178C46.5931 2.90604 46.7386 2.42685 46.5081 2.12356C46.4111 2.00225 46.217 1.98405 46.1017 1.98405L46.0896 1.99011Z" fill="black"/>
<path d="M8.3913 7.18837C8.31852 10.197 4.29695 10.197 4.23022 7.18837C4.27875 4.14945 8.34885 4.14945 8.3913 7.18837ZM7.348 7.18837C7.30554 6.08441 5.30386 6.07835 5.26746 7.18837C5.29173 8.32266 7.3298 8.32266 7.348 7.18837Z" fill="black"/>
<path d="M11.5988 33.6404C11.5988 32.4454 12.3753 31.6387 13.4913 31.6387C14.6074 31.6387 15.2504 32.4393 15.2261 33.6949H12.4541C12.4784 34.4714 12.9576 34.8414 13.5095 34.8414C14.0615 34.8414 14.4437 34.4714 14.5892 34.065L15.2747 34.5017C14.8379 35.1507 14.2132 35.4601 13.4974 35.4601C12.4359 35.4601 11.5928 34.8171 11.5928 33.6404H11.5988ZM14.3769 33.1126C14.3041 32.6031 14.013 32.2331 13.4853 32.2331C13 32.2331 12.6361 32.5607 12.5026 33.1126H14.3709H14.3769Z" fill="black"/>
<path d="M15.7961 30.5832H16.6271V34.4895C16.6271 34.7625 16.6332 35.0658 16.6696 35.3569H15.8022V30.5771L15.7961 30.5832Z" fill="black"/>
<path d="M17.6886 30.583H18.6652L19.7995 33.1913C19.9754 33.5855 20.0725 33.9737 20.0725 33.9737C20.0725 33.9737 20.2484 33.5916 20.4121 33.2034L21.5404 30.583H22.4684L22.984 35.3628H22.1166L21.8376 32.6211C21.7951 32.1904 21.783 31.7658 21.783 31.7658C21.783 31.7658 21.6314 32.154 21.4615 32.5483L20.3212 35.2293H19.6903L18.5924 32.5483C18.4226 32.154 18.2891 31.7537 18.2891 31.7537C18.2891 31.7537 18.2528 32.1662 18.2103 32.5908L18.0162 34.4408C17.9798 34.7502 17.9616 35.0049 17.998 35.3628H17.167L17.6826 30.583H17.6886Z" fill="black"/>
<path d="M23.3118 33.5374C23.3118 32.482 24.0215 31.6328 25.2225 31.6328C26.4235 31.6328 27.1453 32.4881 27.1453 33.5374C27.1453 34.5868 26.4235 35.4542 25.2225 35.4542C24.0215 35.4542 23.3118 34.5989 23.3118 33.5374ZM25.2225 34.8416C25.8776 34.8416 26.2658 34.2775 26.2658 33.5374C26.2658 32.7974 25.8776 32.2454 25.2225 32.2454C24.5674 32.2454 24.1852 32.7974 24.1852 33.5374C24.1852 34.2775 24.5734 34.8416 25.2225 34.8416Z" fill="black"/>
<path d="M27.6606 30.583H28.4916V33.44L29.7594 32.2511C29.9414 32.0994 30.0991 31.9053 30.2204 31.7234H31.1484L29.6745 33.1549L31.3122 35.3628H30.3296L29.074 33.725L28.4916 34.2346V35.3628H27.6606V30.583Z" fill="black"/>
<path d="M33.5506 32.2814C32.9865 32.2814 32.3496 32.8758 32.3496 33.719V35.3628H31.5186V30.583H32.3496V32.7121C32.6043 32.0752 33.1684 31.6263 33.8478 31.6263C34.7152 31.6263 35.1155 32.1965 35.1155 32.8819V34.4833C35.1155 34.7865 35.1277 35.0595 35.158 35.3507H34.2967V33.0275C34.2967 32.5544 34.0722 32.2693 33.5566 32.2693L33.5506 32.2814Z" fill="black"/>
<path d="M36.0496 34.5319V32.3422H35.3945V31.7296H36.0496V31.1169C36.3954 31.032 36.638 30.9046 36.9049 30.7227C36.8867 31.0623 36.8685 31.4202 36.8685 31.6689V31.7296H37.748V32.3422H36.8685V34.4288C36.8685 34.6714 37.008 34.7624 37.2446 34.7624C37.4629 34.7624 37.6146 34.72 37.7966 34.6411L37.7056 35.3569C37.4993 35.4297 37.2385 35.46 37.0626 35.46C36.4075 35.46 36.0496 35.1688 36.0496 34.538V34.5319Z" fill="black"/>
<path d="M39.0642 34.6715V35.3569H38.2332V30.5771H39.0642V32.4272C39.3189 31.9298 39.786 31.6265 40.338 31.6265C41.3752 31.6265 42.0606 32.3908 42.0606 33.5372C42.0606 34.6836 41.3752 35.4479 40.338 35.4479C39.7981 35.4479 39.3129 35.1386 39.0642 34.6654V34.6715ZM40.1257 34.8171C40.7626 34.8171 41.1872 34.3015 41.1872 33.5493C41.1872 32.7972 40.7565 32.2816 40.1257 32.2816C39.5252 32.2816 39.0642 32.8093 39.0642 33.4159V33.6828C39.0642 34.3136 39.5433 34.8171 40.1257 34.8171Z" fill="black"/>
<path d="M42.5825 31.7297H43.4196V32.6334C43.6865 32.0026 44.1171 31.6387 44.5417 31.6387C44.8026 31.6387 44.9845 31.7175 45.1544 31.857L44.8086 32.591C44.6509 32.4575 44.5235 32.3969 44.3052 32.3969C43.8503 32.3969 43.4135 32.8821 43.4135 33.6222V34.4956C43.4135 34.7686 43.4196 35.0719 43.456 35.363H42.5825V31.7297Z" fill="black"/>
</g>
<defs>
<clipPath id="clip0_1499_26143">
<rect width="56.7471" height="35.4603" fill="white"/>
</clipPath>
</defs>
</svg>
