<svg width="358" height="76" viewBox="0 0 358 76" fill="none" xmlns="http://www.w3.org/2000/svg">
<g clip-path="url(#clip0_1221_21039)">
<path d="M35.4561 29.6351L22.8512 33.2157L21.9736 30.1158L34.538 26.4785L35.4588 29.6324L35.4561 29.6351Z" fill="black"/>
<path d="M18.417 58.312H20.3531C26.7069 58.312 29.1398 57.051 29.1398 51.5397C29.1398 49.9006 28.8914 48.0644 28.5944 46.1283L27.552 39.8232L32.3666 39.0293L33.1119 43.3984C33.6574 46.5253 33.9058 49.3552 33.9058 51.3912C33.9058 60.2265 29.688 64.8143 20.4044 64.8143H18.4197V58.312H18.417Z" fill="black"/>
<path d="M37.2773 58.3102H40.3044C46.9551 58.3102 50.7787 57.8917 52.1667 54.5649H46.2585C40.947 54.5649 37.7715 51.3381 37.7715 45.9267C37.7715 39.3245 41.9893 34.2129 47.6005 34.2129C53.2117 34.2129 57.1298 39.3758 57.3296 48.0626H59.7626V53.2256L58.4232 54.5649H56.7356C54.9993 62.1095 49.5879 64.8125 40.6527 64.8125H37.2773V58.3102ZM46.6095 48.0653H52.7635V47.5199C52.7635 43.3992 50.4304 40.7206 47.0551 40.7206C44.2765 40.7206 42.2891 42.5568 42.2891 45.0896C42.2891 47.1742 43.8768 48.068 46.6068 48.068L46.6095 48.0653Z" fill="black"/>
<path d="M58.4229 49.4038L59.7622 48.0645H65.0736V53.2274L63.7343 54.5667H58.4229V49.4038Z" fill="black"/>
<path d="M63.7334 49.4038L65.0727 48.0645H70.3842V53.2274L69.0449 54.5667H63.7334V49.4038Z" fill="black"/>
<path d="M69.0449 49.4038L70.3843 48.0645H75.6957V53.2274L74.3564 54.5667H69.0449V49.4038Z" fill="black"/>
<path d="M74.3584 49.4038L75.6977 48.0645H81.0092V53.2274L79.6699 54.5667H74.3584V49.4038Z" fill="black"/>
<path d="M79.668 49.4061L81.0073 48.0667H82.5465C85.3251 48.0667 86.6158 46.8759 86.6158 44.343V37.0469H91.479V44.343C91.479 46.8732 92.6698 48.0667 95.2027 48.0667H97.0902V53.2297L95.7508 54.569C90.6878 54.569 88.0577 52.6329 87.1639 48.4151H86.9155C86.073 52.7328 83.9857 54.569 79.668 54.569V49.4061Z" fill="black"/>
<path d="M95.752 49.4034L97.0913 48.064H106.672C111.486 48.064 114.117 46.9218 114.117 43.001V40.9164H113.82C112.877 43.4493 110.593 44.74 107.366 44.74C102.054 44.74 98.8789 41.8102 98.8789 36.8471C98.8789 30.2449 103.097 25.2305 108.757 25.2305C114.962 25.2305 118.685 30.7903 118.685 40.1711C118.685 51.5879 114.913 54.5663 106.672 54.5663H95.752V49.4034ZM114.068 37.938C113.72 34.1657 111.438 31.7327 108.211 31.7327C105.381 31.7327 103.445 33.5203 103.445 36.0019C103.445 38.0865 104.984 38.8804 107.714 38.8804H108.757C111.387 38.8804 113.026 38.632 114.068 37.938Z" fill="black"/>
<path d="M-0.000458814 45.7139C-0.000458814 43.3944 0.47209 41.2288 1.41989 39.2225C2.36769 37.2135 3.61522 35.6203 5.16248 34.4457C6.70974 33.2683 8.34071 32.6797 10.0554 32.6797C11.7701 32.6797 13.4523 33.2683 15.0023 34.4457C16.5496 35.623 17.789 37.2243 18.7179 39.2495C19.6468 41.2747 20.1112 43.4835 20.1112 45.8706C20.1112 48.849 19.2363 51.1334 17.4866 52.7266C15.7368 54.3197 13.2606 55.1163 10.0527 55.1163C6.84475 55.1163 4.3686 54.3035 2.61881 52.6753C0.869032 51.047 -0.00585938 48.7275 -0.00585938 45.7166L-0.000458814 45.7139ZM15.4019 45.5087C15.4019 43.8291 14.8943 42.4844 13.879 41.4745C12.8637 40.4646 11.5648 39.9569 9.98518 39.9569C8.55673 39.9569 7.2957 40.4187 6.20479 41.3449C5.11387 42.2711 4.56842 43.4511 4.56842 44.8904C4.56842 46.0218 5.06797 46.9129 6.06437 47.5636C7.06077 48.2144 8.36771 48.5411 9.98788 48.5411C11.4541 48.5411 12.726 48.2414 13.798 47.6419C14.87 47.0425 15.4073 46.3323 15.4073 45.5087H15.4019Z" fill="black"/>
<path d="M112.891 15.7108L108.557 19.6775C108.422 19.8017 108.214 19.7909 108.09 19.6559L104.596 15.7999C104.477 15.6676 104.483 15.4651 104.612 15.3436L108.871 11.2229C109.006 11.0933 109.222 11.1014 109.346 11.2418L112.913 15.2544C113.032 15.3895 113.021 15.5947 112.889 15.7162L112.891 15.7108Z" fill="black"/>
<path d="M89.2877 27.162L84.9538 31.1287C84.8188 31.2529 84.6108 31.2421 84.4866 31.1071L80.9925 27.2511C80.8736 27.1188 80.879 26.9162 81.0087 26.7947L85.267 22.6741C85.402 22.5445 85.618 22.5526 85.7423 22.693L89.3093 26.7056C89.4281 26.8406 89.4173 27.0458 89.285 27.1674L89.2877 27.162Z" fill="black"/>
<path d="M96.5778 27.162L92.2438 31.1287C92.1088 31.2529 91.9009 31.2421 91.7767 31.1071L88.2825 27.2511C88.1637 27.1188 88.1691 26.9162 88.2987 26.7947L92.557 22.6741C92.6921 22.5445 92.9081 22.5526 93.0323 22.693L96.5994 26.7056C96.7182 26.8406 96.7074 27.0458 96.5751 27.1674L96.5778 27.162Z" fill="black"/>
<path d="M11.0162 22.9959L6.68229 26.9627C6.54728 27.0869 6.33935 27.0761 6.21514 26.9411L2.72098 23.0851C2.60216 22.9527 2.60757 22.7502 2.73718 22.6287L6.99552 18.5081C7.13054 18.3785 7.34656 18.3866 7.47077 18.527L11.0378 22.5396C11.1567 22.6746 11.1459 22.8798 11.0135 23.0013L11.0162 22.9959Z" fill="black"/>
<path d="M18.3073 22.9959L13.9733 26.9627C13.8383 27.0869 13.6304 27.0761 13.5062 26.9411L10.012 23.0851C9.89318 22.9527 9.89858 22.7502 10.0282 22.6287L14.2865 18.5081C14.4216 18.3785 14.6376 18.3866 14.7618 18.527L18.3289 22.5396C18.4477 22.6746 18.4369 22.8798 18.3046 23.0013L18.3073 22.9959Z" fill="black"/>
</g>
<g clip-path="url(#clip1_1221_21039)">
<path d="M173.865 25.3164H147.261C142.523 25.3164 138.683 29.1573 138.683 33.8952V42.0527C138.683 46.7907 142.523 50.6315 147.261 50.6315H173.865C178.603 50.6315 182.443 46.7907 182.443 42.0527V33.8952C182.443 29.1573 178.603 25.3164 173.865 25.3164Z" fill="url(#paint0_linear_1221_21039)"/>
<path d="M191.554 25.3164H191.551C186.521 25.3164 182.443 29.3942 182.443 34.4245V41.5235C182.443 46.5537 186.521 50.6315 191.551 50.6315H191.554C196.584 50.6315 200.662 46.5537 200.662 41.5235V34.4245C200.662 29.3942 196.584 25.3164 191.554 25.3164Z" fill="url(#paint1_linear_1221_21039)"/>
<path d="M209.773 25.3164H209.77C204.74 25.3164 200.662 29.3942 200.662 34.4245V41.5235C200.662 46.5537 204.74 50.6315 209.77 50.6315H209.773C214.803 50.6315 218.881 46.5537 218.881 41.5235V34.4245C218.881 29.3942 214.803 25.3164 209.773 25.3164Z" fill="url(#paint2_linear_1221_21039)"/>
<path d="M173.865 0H147.261C142.523 0 138.683 3.84086 138.683 8.57879V16.7363C138.683 21.4743 142.523 25.3151 147.261 25.3151H173.865C178.603 25.3151 182.443 21.4743 182.443 16.7363V8.57879C182.443 3.84086 178.603 0 173.865 0Z" fill="url(#paint3_linear_1221_21039)"/>
<path d="M191.554 0H191.551C186.521 0 182.443 4.07781 182.443 9.10805V16.2071C182.443 21.2373 186.521 25.3151 191.551 25.3151H191.554C196.584 25.3151 200.662 21.2373 200.662 16.2071V9.10805C200.662 4.07781 196.584 0 191.554 0Z" fill="url(#paint4_linear_1221_21039)"/>
<path d="M209.773 0H209.77C204.74 0 200.662 4.07781 200.662 9.10805V16.2071C200.662 21.2373 204.74 25.3151 209.77 25.3151H209.773C214.803 25.3151 218.881 21.2373 218.881 16.2071V9.10805C218.881 4.07781 214.803 0 209.773 0Z" fill="url(#paint5_linear_1221_21039)"/>
<path d="M173.865 50.6309H147.261C142.523 50.6309 138.683 54.4717 138.683 59.2097V67.3672C138.683 72.1051 142.523 75.946 147.261 75.946H173.865C178.603 75.946 182.443 72.1051 182.443 67.3672V59.2097C182.443 54.4717 178.603 50.6309 173.865 50.6309Z" fill="url(#paint6_linear_1221_21039)"/>
<path d="M191.554 50.6309H191.551C186.521 50.6309 182.443 54.7087 182.443 59.7389V66.8379C182.443 71.8682 186.521 75.946 191.551 75.946H191.554C196.584 75.946 200.662 71.8682 200.662 66.8379V59.7389C200.662 54.7087 196.584 50.6309 191.554 50.6309Z" fill="url(#paint7_linear_1221_21039)"/>
<path d="M209.773 50.6309H209.77C204.74 50.6309 200.662 54.7087 200.662 59.7389V66.8379C200.662 71.8682 204.74 75.946 209.77 75.946H209.773C214.803 75.946 218.881 71.8682 218.881 66.8379V59.7389C218.881 54.7087 214.803 50.6309 209.773 50.6309Z" fill="url(#paint8_linear_1221_21039)"/>
</g>
<g clip-path="url(#clip2_1221_21039)">
<path d="M238.881 49.5666L242.934 49.5508V35.7986L238.881 35.8145V31.9711L242.934 31.9552V29.1302C242.934 24.361 245.481 21.9062 250.622 21.9062H254.182V25.702H251.503C249.188 25.702 248.077 26.8606 248.077 29.1275V31.9525H253.349V35.796H248.077V49.5481H253.349V53.3915L238.884 53.4074V49.564L238.881 49.5666Z" fill="black"/>
<path d="M255.977 42.6986C255.977 36.0301 259.358 31.3535 264.59 31.3535C267.738 31.3535 269.823 33.1602 270.982 35.6598H271.167V31.9566H276.355V53.3956H271.167V49.6924H270.982C269.593 52.7026 267.416 54.0437 264.453 54.0437C259.358 54.0437 255.979 49.367 255.979 42.6986H255.977ZM266.164 50.2452C269.082 50.2452 271.167 47.2826 271.167 42.651C271.167 38.0193 269.082 35.1043 266.164 35.1043C263.246 35.1043 261.117 38.0669 261.117 42.651C261.117 47.235 263.154 50.2452 266.164 50.2452Z" fill="black"/>
<path d="M282.849 46.1745V35.8028H278.81V31.9594H282.849V25.3359H287.989V31.9568H293.54V35.8002H287.989V46.1718C287.989 48.4414 289.101 49.5523 291.415 49.5523H294.233V53.3957H290.257C285.487 53.3957 282.847 50.941 282.847 46.1718L282.849 46.1745Z" fill="black"/>
<path d="M296.185 45.571V31.959H301.372V44.5526C301.372 48.1632 302.253 50.2476 305.031 50.2476C307.994 50.2476 309.986 47.7479 309.986 44.3674V31.959H315.174V53.398H309.986V49.9249H309.801C308.227 52.6097 305.772 54.046 302.902 54.046C299.058 54.046 296.187 51.5913 296.187 45.5736L296.185 45.571Z" fill="black"/>
<path d="M317.902 49.5526H321.942V35.8004H317.902V31.957H327.082V37.0966H327.267C328.333 33.8086 330.786 31.957 334.815 31.957H336.344V36.5861H332.87C328.934 36.5861 327.082 38.4377 327.082 42.4662V49.55H334.444V53.3934H317.899V49.55L317.902 49.5526Z" fill="black"/>
<path d="M337.318 42.6986C337.318 36.0301 340.699 31.3535 345.932 31.3535C349.08 31.3535 351.165 33.1602 352.324 35.6598H352.509V31.9566H357.697V53.3956H352.509V49.6924H352.324C350.935 52.7026 348.758 54.0437 345.795 54.0437C340.699 54.0437 337.321 49.367 337.321 42.6986H337.318ZM347.506 50.2452C350.424 50.2452 352.509 47.2826 352.509 42.651C352.509 38.0193 350.424 35.1043 347.506 35.1043C344.588 35.1043 342.459 38.0669 342.459 42.651C342.459 47.235 344.496 50.2452 347.506 50.2452Z" fill="black"/>
</g>
<defs>
<linearGradient id="paint0_linear_1221_21039" x1="160.563" y1="23.5585" x2="160.563" y2="37.1301" gradientUnits="userSpaceOnUse">
<stop stop-color="#91C3FD"/>
<stop offset="1" stop-color="#61A6FA"/>
</linearGradient>
<linearGradient id="paint1_linear_1221_21039" x1="191.554" y1="23.5585" x2="191.554" y2="37.1301" gradientUnits="userSpaceOnUse">
<stop stop-color="#91C3FD"/>
<stop offset="1" stop-color="#61A6FA"/>
</linearGradient>
<linearGradient id="paint2_linear_1221_21039" x1="209.773" y1="23.5585" x2="209.773" y2="37.1301" gradientUnits="userSpaceOnUse">
<stop stop-color="#91C3FD"/>
<stop offset="1" stop-color="#61A6FA"/>
</linearGradient>
<linearGradient id="paint3_linear_1221_21039" x1="160.563" y1="-6.79661" x2="160.563" y2="11.7111" gradientUnits="userSpaceOnUse">
<stop stop-color="#F2F7FF"/>
<stop offset="1" stop-color="#BEDBFE"/>
</linearGradient>
<linearGradient id="paint4_linear_1221_21039" x1="191.554" y1="-6.79661" x2="191.554" y2="11.7111" gradientUnits="userSpaceOnUse">
<stop stop-color="#F2F7FF"/>
<stop offset="1" stop-color="#BEDBFE"/>
</linearGradient>
<linearGradient id="paint5_linear_1221_21039" x1="209.773" y1="-6.79661" x2="209.773" y2="11.7111" gradientUnits="userSpaceOnUse">
<stop stop-color="#F2F7FF"/>
<stop offset="1" stop-color="#BEDBFE"/>
</linearGradient>
<linearGradient id="paint6_linear_1221_21039" x1="160.563" y1="40.3779" x2="160.563" y2="63.1359" gradientUnits="userSpaceOnUse">
<stop stop-color="#61A6FA"/>
<stop offset="1" stop-color="#0061FE"/>
</linearGradient>
<linearGradient id="paint7_linear_1221_21039" x1="191.554" y1="40.3779" x2="191.554" y2="63.1359" gradientUnits="userSpaceOnUse">
<stop stop-color="#61A6FA"/>
<stop offset="1" stop-color="#0061FE"/>
</linearGradient>
<linearGradient id="paint8_linear_1221_21039" x1="209.773" y1="40.3779" x2="209.773" y2="63.1359" gradientUnits="userSpaceOnUse">
<stop stop-color="#61A6FA"/>
<stop offset="1" stop-color="#0061FE"/>
</linearGradient>
<clipPath id="clip0_1221_21039">
<rect width="118.683" height="53.687" fill="white" transform="translate(0 11.1289)"/>
</clipPath>
<clipPath id="clip1_1221_21039">
<rect width="80.1983" height="75.9454" fill="white" transform="translate(138.683)"/>
</clipPath>
<clipPath id="clip2_1221_21039">
<rect width="118.812" height="32.1333" fill="white" transform="translate(238.881 21.9062)"/>
</clipPath>
</defs>
</svg>
