<svg width="119" height="86" viewBox="0 0 119 86" fill="none" xmlns="http://www.w3.org/2000/svg">
<g clip-path="url(#clip0_1209_20644)">
<path d="M35.4561 18.5062L22.8512 22.0868L21.9736 18.9869L34.538 15.3496L35.4588 18.5035L35.4561 18.5062Z" fill="white"/>
<path d="M18.417 47.1831H20.3531C26.7069 47.1831 29.1398 45.9221 29.1398 40.4108C29.1398 38.7717 28.8914 36.9355 28.5944 34.9994L27.552 28.6943L32.3666 27.9004L33.1119 32.2694C33.6574 35.3964 33.9058 38.2263 33.9058 40.2623C33.9058 49.0976 29.688 53.6854 20.4044 53.6854H18.4197V47.1831H18.417Z" fill="white"/>
<path d="M37.2773 47.1813H40.3044C46.9551 47.1813 50.7787 46.7628 52.1667 43.436H46.2585C40.947 43.436 37.7715 40.2092 37.7715 34.7978C37.7715 28.1956 41.9893 23.084 47.6005 23.084C53.2117 23.084 57.1298 28.2469 57.3296 36.9337H59.7626V42.0967L58.4232 43.436H56.7356C54.9993 50.9806 49.5879 53.6836 40.6527 53.6836H37.2773V47.1813ZM46.6095 36.9364H52.7635V36.391C52.7635 32.2703 50.4304 29.5917 47.0551 29.5917C44.2765 29.5917 42.2891 31.4279 42.2891 33.9607C42.2891 36.0453 43.8768 36.9391 46.6068 36.9391L46.6095 36.9364Z" fill="white"/>
<path d="M58.4229 38.2749L59.7622 36.9355H65.0736V42.0985L63.7343 43.4378H58.4229V38.2749Z" fill="white"/>
<path d="M63.7334 38.2749L65.0727 36.9355H70.3842V42.0985L69.0449 43.4378H63.7334V38.2749Z" fill="white"/>
<path d="M69.0449 38.2749L70.3843 36.9355H75.6957V42.0985L74.3564 43.4378H69.0449V38.2749Z" fill="white"/>
<path d="M74.3584 38.2749L75.6977 36.9355H81.0092V42.0985L79.6699 43.4378H74.3584V38.2749Z" fill="white"/>
<path d="M79.668 38.2772L81.0073 36.9378H82.5465C85.3251 36.9378 86.6158 35.747 86.6158 33.2141V25.918H91.479V33.2141C91.479 35.7443 92.6698 36.9378 95.2027 36.9378H97.0902V42.1008L95.7508 43.4401C90.6878 43.4401 88.0577 41.504 87.1639 37.2862H86.9155C86.073 41.6039 83.9857 43.4401 79.668 43.4401V38.2772Z" fill="white"/>
<path d="M95.752 38.2745L97.0913 36.9351H106.672C111.486 36.9351 114.117 35.7929 114.117 31.8721V29.7875H113.82C112.877 32.3204 110.593 33.6111 107.366 33.6111C102.054 33.6111 98.8789 30.6813 98.8789 25.7182C98.8789 19.116 103.097 14.1016 108.757 14.1016C114.962 14.1016 118.685 19.6614 118.685 29.0422C118.685 40.459 114.913 43.4374 106.672 43.4374H95.752V38.2745ZM114.068 26.8091C113.72 23.0368 111.438 20.6038 108.211 20.6038C105.381 20.6038 103.445 22.3914 103.445 24.873C103.445 26.9576 104.984 27.7515 107.714 27.7515H108.757C111.387 27.7515 113.026 27.5031 114.068 26.8091Z" fill="white"/>
<path d="M-0.000458814 34.585C-0.000458814 32.2655 0.47209 30.0999 1.41989 28.0936C2.36769 26.0846 3.61522 24.4914 5.16248 23.3168C6.70974 22.1394 8.34071 21.5508 10.0554 21.5508C11.7701 21.5508 13.4523 22.1394 15.0023 23.3168C16.5496 24.4941 17.789 26.0954 18.7179 28.1206C19.6468 30.1458 20.1112 32.3546 20.1112 34.7417C20.1112 37.7201 19.2363 40.0045 17.4866 41.5977C15.7368 43.1908 13.2606 43.9874 10.0527 43.9874C6.84475 43.9874 4.3686 43.1746 2.61881 41.5464C0.869032 39.9181 -0.00585938 37.5986 -0.00585938 34.5877L-0.000458814 34.585ZM15.4019 34.3798C15.4019 32.7002 14.8943 31.3555 13.879 30.3456C12.8637 29.3357 11.5648 28.828 9.98518 28.828C8.55673 28.828 7.2957 29.2898 6.20479 30.216C5.11387 31.1422 4.56842 32.3222 4.56842 33.7615C4.56842 34.8929 5.06797 35.784 6.06437 36.4347C7.06077 37.0855 8.36771 37.4122 9.98788 37.4122C11.4541 37.4122 12.726 37.1125 13.798 36.513C14.87 35.9136 15.4073 35.2034 15.4073 34.3798H15.4019Z" fill="white"/>
<path d="M112.891 4.58188L108.557 8.54859C108.422 8.67281 108.214 8.66201 108.09 8.52699L104.596 4.67099C104.477 4.53868 104.483 4.33616 104.612 4.21464L108.871 0.0940157C109.006 -0.0355977 109.222 -0.0274969 109.346 0.112918L112.913 4.12554C113.032 4.26055 113.021 4.46577 112.889 4.58728L112.891 4.58188Z" fill="white"/>
<path d="M89.2877 16.0331L84.9538 19.9998C84.8188 20.124 84.6108 20.1132 84.4866 19.9782L80.9925 16.1222C80.8736 15.9898 80.879 15.7873 81.0087 15.6658L85.267 11.5452C85.402 11.4156 85.618 11.4237 85.7423 11.5641L89.3093 15.5767C89.4281 15.7117 89.4173 15.9169 89.285 16.0385L89.2877 16.0331Z" fill="white"/>
<path d="M96.5778 16.0331L92.2438 19.9998C92.1088 20.124 91.9009 20.1132 91.7767 19.9782L88.2825 16.1222C88.1637 15.9898 88.1691 15.7873 88.2987 15.6658L92.557 11.5452C92.6921 11.4156 92.9081 11.4237 93.0323 11.5641L96.5994 15.5767C96.7182 15.7117 96.7074 15.9169 96.5751 16.0385L96.5778 16.0331Z" fill="white"/>
<path d="M11.0162 11.867L6.68229 15.8338C6.54728 15.958 6.33935 15.9472 6.21514 15.8122L2.72098 11.9561C2.60216 11.8238 2.60757 11.6213 2.73718 11.4998L6.99552 7.37917C7.13054 7.24956 7.34656 7.25766 7.47077 7.39807L11.0378 11.4107C11.1567 11.5457 11.1459 11.7509 11.0135 11.8724L11.0162 11.867Z" fill="white"/>
<path d="M18.3073 11.867L13.9733 15.8338C13.8383 15.958 13.6304 15.9472 13.5062 15.8122L10.012 11.9561C9.89318 11.8238 9.89858 11.6213 10.0282 11.4998L14.2865 7.37917C14.4216 7.24956 14.6376 7.25766 14.7618 7.39807L18.3289 11.4107C18.4477 11.5457 18.4369 11.7509 18.3046 11.8724L18.3073 11.867Z" fill="white"/>
</g>
<g clip-path="url(#clip1_1209_20644)">
<path d="M0 81.3479L4.05292 81.332V67.5799L0 67.5957V63.7523L4.05292 63.7364V60.9114C4.05292 56.1422 6.60054 53.6875 11.7408 53.6875H15.3016V57.4833H12.6217C10.3069 57.4833 9.19578 58.6419 9.19578 60.9088V63.7338H14.4683V67.5772H9.19578V81.3294H14.4683V85.1728L0.00264551 85.1886V81.3452L0 81.3479Z" fill="white"/>
<path d="M17.0957 74.4798C17.0957 67.8114 20.4767 63.1348 25.7095 63.1348C28.8576 63.1348 30.9423 64.9414 32.101 67.4411H32.2862V63.7379H37.474V85.1768H32.2862V81.4736H32.101C30.7121 84.4838 28.5349 85.8249 25.5719 85.8249C20.4767 85.8249 17.0983 81.1483 17.0983 74.4798H17.0957ZM27.2835 82.0265C30.2015 82.0265 32.2862 79.0639 32.2862 74.4322C32.2862 69.8006 30.2015 66.8856 27.2835 66.8856C24.3656 66.8856 22.2359 69.8482 22.2359 74.4322C22.2359 79.0163 24.273 82.0265 27.2835 82.0265Z" fill="white"/>
<path d="M43.9684 77.9557V67.5841H39.9287V63.7407H43.9684V57.1172H49.1086V63.738H54.6589V67.5814H49.1086V77.9531C49.1086 80.2226 50.2197 81.3336 52.5346 81.3336H55.352V85.177H51.3758C46.606 85.177 43.9658 82.7223 43.9658 77.9531L43.9684 77.9557Z" fill="white"/>
<path d="M57.3037 77.3522V63.7402H62.4916V76.3338C62.4916 79.9445 63.3725 82.0288 66.1503 82.0288C69.1133 82.0288 71.1053 79.5292 71.1053 76.1487V63.7402H76.2932V85.1792H71.1053V81.7061H70.9201C69.3461 84.391 66.891 85.8273 64.0207 85.8273C60.1767 85.8273 57.3064 83.3726 57.3064 77.3548L57.3037 77.3522Z" fill="white"/>
<path d="M79.0212 81.3339H83.0609V67.5817H79.0212V63.7383H88.2011V68.8778H88.3863C89.4524 65.5899 91.9048 63.7383 95.9339 63.7383H97.463V68.3673H93.9895C90.053 68.3673 88.2011 70.2189 88.2011 74.2475V81.3312H95.5636V85.1746H79.0186V81.3312L79.0212 81.3339Z" fill="white"/>
<path d="M98.4375 74.4798C98.4375 67.8114 101.818 63.1348 107.051 63.1348C110.199 63.1348 112.284 64.9414 113.443 67.4411H113.628V63.7379H118.816V85.1768H113.628V81.4736H113.443C112.054 84.4838 109.877 85.8249 106.914 85.8249C101.818 85.8249 98.4401 81.1483 98.4401 74.4798H98.4375ZM108.625 82.0265C111.543 82.0265 113.628 79.0639 113.628 74.4322C113.628 69.8006 111.543 66.8856 108.625 66.8856C105.707 66.8856 103.578 69.8482 103.578 74.4322C103.578 79.0163 105.615 82.0265 108.625 82.0265Z" fill="white"/>
</g>
<defs>
<clipPath id="clip0_1209_20644">
<rect width="118.683" height="53.687" fill="white"/>
</clipPath>
<clipPath id="clip1_1209_20644">
<rect width="118.812" height="32.1333" fill="white" transform="translate(0 53.6875)"/>
</clipPath>
</defs>
</svg>
