<svg width="125" height="90" viewBox="0 0 125 90" fill="none" xmlns="http://www.w3.org/2000/svg">
<path d="M37.3467 19.4111L24.0729 23.1674L23.1494 19.9143L36.3824 16.0996L37.3518 19.4086H37.3493L37.3467 19.4111Z" fill="black"/>
<path d="M19.4014 49.498H21.4398C28.1315 49.498 30.6929 48.1739 30.6929 42.3922C30.6929 40.6716 30.4301 38.7452 30.1189 36.7146L29.0219 30.0992L34.091 29.2656L34.8768 33.8504C35.4508 37.1314 35.7136 40.0998 35.7136 42.2346C35.7136 51.5032 31.272 56.3167 21.4959 56.3167H19.4065V49.4955H19.4039L19.4014 49.498Z" fill="black"/>
<path d="M39.2656 49.4965H42.4546C49.4576 49.4965 53.4859 49.0568 54.9477 45.5674H48.7254C43.1307 45.5674 39.7886 42.1822 39.7886 36.5047C39.7886 29.5792 44.2302 24.2168 50.1387 24.2168C56.0473 24.2168 60.1751 29.6326 60.3843 38.7462H62.9456V44.162L61.5348 45.5674H59.7567C57.9275 53.4815 52.2282 56.3177 42.8194 56.3177H39.2656V49.4965ZM49.0928 38.7488H55.5727V38.1769C55.5727 33.8539 53.116 31.0431 49.5622 31.0431C46.636 31.0431 44.544 32.9695 44.544 35.6279C44.544 37.816 46.215 38.7513 49.0902 38.7513H49.0928V38.7488Z" fill="black"/>
<path d="M61.5312 40.1535L62.9421 38.748H68.5368V44.1639L67.126 45.5693H61.5312V40.1535Z" fill="black"/>
<path d="M67.126 40.1535L68.5368 38.748H74.1315V44.1639L72.7207 45.5693H67.126V40.1535Z" fill="black"/>
<path d="M72.7188 40.1535L74.1296 38.748H79.7243V44.1639L78.3135 45.5693H72.7188V40.1535Z" fill="black"/>
<path d="M78.3135 40.1535L79.7243 38.748H85.319V44.1639L83.9082 45.5693H78.3135V40.1535Z" fill="black"/>
<path d="M83.9059 40.1539L85.3167 38.7485H86.9367C89.8629 38.7485 91.2226 37.4981 91.2226 34.8423V27.1875H96.3454V34.8423C96.3454 37.4956 97.6006 38.7485 100.267 38.7485H102.254V44.1643L100.843 45.5697C95.5112 45.5697 92.7406 43.5391 91.7992 39.1145H91.5364C90.6486 43.6433 88.4521 45.5697 83.9033 45.5697V40.1539H83.9059Z" fill="black"/>
<path d="M100.846 40.154L102.257 38.7486H112.346C117.416 38.7486 120.186 37.549 120.186 33.437V31.2488H119.875C118.883 33.9071 116.477 35.2592 113.079 35.2592C107.486 35.2592 104.142 32.1866 104.142 26.9792C104.142 20.0538 108.583 14.793 114.543 14.793C121.077 14.793 125 20.6256 125 30.466C125 42.4438 121.028 45.5673 112.349 45.5673H100.848V40.1515L100.846 40.154ZM120.135 28.1254C119.768 24.1683 117.365 21.6142 113.966 21.6142C110.987 21.6142 108.948 23.4898 108.948 26.0922C108.948 28.2804 110.568 29.1114 113.443 29.1114H114.54C117.311 29.1114 119.036 28.8497 120.135 28.1228V28.1254Z" fill="black"/>
<path d="M0.00510235 36.281C0.00510235 33.8488 0.502582 31.5768 1.50009 29.4699C2.4976 27.363 3.81146 25.6908 5.44166 24.4582C7.07186 23.223 8.7888 22.6055 10.595 22.6055C12.4013 22.6055 14.1718 23.223 15.8045 24.4582C17.4347 25.6933 18.7384 27.3732 19.718 29.4979C20.6951 31.6225 21.185 33.9403 21.185 36.4436C21.185 39.567 20.264 41.9662 18.422 43.6359C16.5801 45.3082 13.9728 46.1417 10.5925 46.1417C7.21218 46.1417 4.60742 45.2878 2.76292 43.58C0.920975 41.8721 0 39.4374 0 36.281H0.00510235ZM16.6541 36.1641C16.6541 34.2707 16.0801 32.7534 14.9295 31.6149C13.7815 30.4763 12.3094 29.9045 10.5211 29.9045C8.90361 29.9045 7.4775 30.4255 6.24273 31.47C5.00796 32.5145 4.39057 33.8437 4.39057 35.4677C4.39057 36.7435 4.95694 37.7474 6.08456 38.4818C7.21218 39.2163 8.69186 39.5848 10.5262 39.5848C12.187 39.5848 13.6258 39.2468 14.8376 38.5708C16.052 37.8948 16.6592 37.0942 16.6592 36.1666H16.6541V36.1641Z" fill="black"/>
<path d="M118.892 4.80617L114.328 8.96651C114.185 9.09612 113.969 9.08596 113.836 8.94363L110.157 4.89766C110.032 4.75788 110.037 4.54694 110.175 4.41987L114.66 0.0968809C114.803 -0.0403569 115.03 -0.0301911 115.16 0.117212L118.915 4.32584C119.04 4.46816 119.03 4.68164 118.89 4.81125V4.80617H118.892Z" fill="black"/>
<path d="M94.0369 16.8218L89.4729 20.9821C89.33 21.1117 89.1106 21.1016 88.9805 20.9593L85.3017 16.9133C85.1767 16.7735 85.1818 16.5626 85.3196 16.4355L89.8045 12.1125C89.9474 11.9753 90.1745 11.9854 90.3046 12.1328L94.0599 16.3415C94.1849 16.4838 94.1747 16.6973 94.0344 16.8269V16.8218H94.0369Z" fill="black"/>
<path d="M101.713 16.8218L97.1487 20.9821C97.0058 21.1117 96.7864 21.1016 96.6563 20.9593L92.9775 16.9133C92.8525 16.7735 92.8576 16.5626 92.9953 16.4355L97.4803 12.1125C97.6232 11.9753 97.8502 11.9854 97.9803 12.1328L101.736 16.3415C101.861 16.4838 101.85 16.6973 101.71 16.8269V16.8218H101.713Z" fill="black"/>
<path d="M11.6082 12.4487L7.04418 16.6091C6.90131 16.7387 6.68191 16.7285 6.5518 16.5862L2.873 12.5402C2.74799 12.4005 2.7531 12.1895 2.89086 12.0624L7.37583 7.73946C7.51869 7.60222 7.74575 7.61239 7.87586 7.75979L11.6312 11.9684C11.7562 12.1107 11.746 12.3242 11.6057 12.4538V12.4487H11.6082Z" fill="black"/>
<path d="M19.2869 12.4487L14.7229 16.6091C14.58 16.7387 14.3606 16.7285 14.2305 16.5862L10.5517 12.5402C10.4267 12.4005 10.4318 12.1895 10.5696 12.0624L15.0545 7.73946C15.1974 7.60222 15.4245 7.61239 15.5546 7.75979L19.3099 11.9684C19.4349 12.1107 19.4247 12.3242 19.2844 12.4538V12.4487H19.2869Z" fill="black"/>
<path d="M0.00548086 85.3086L4.2685 85.2908V70.8783L0.00548086 70.8961V66.8679L4.2685 66.8501V63.8893C4.2685 58.8903 6.94978 56.3184 12.3557 56.3184H16.1009V60.2957H13.2818C10.8454 60.2957 9.67699 61.5105 9.67699 63.8868V66.8475H15.2232V70.8757H9.67699V85.2882H15.2232V89.3164L0.00548086 89.3342V85.306H0.00292969L0.00548086 85.3086Z" fill="black"/>
<path d="M17.9912 78.1115C17.9912 71.1226 21.5476 66.2227 27.053 66.2227C30.3644 66.2227 32.5584 68.116 33.7779 70.7362H33.9718V66.8555H39.4287V89.3218H33.9718V85.441H33.7779C32.3161 88.595 30.0277 90.0004 26.9101 90.0004C21.5501 90.0004 17.9963 85.1005 17.9963 78.1115H17.9938H17.9912ZM28.7087 86.0205C31.7778 86.0205 33.9718 82.9148 33.9718 78.0632C33.9718 73.2116 31.7778 70.1543 28.7087 70.1543C25.6396 70.1543 23.3997 73.2599 23.3997 78.0632C23.3997 82.8665 25.5427 86.0205 28.7087 86.0205Z" fill="black"/>
<path d="M46.259 81.7546V70.8849H42.0088V66.8567H46.259V59.916H51.6675V66.8541H57.5072V70.8823H51.6675V81.7521C51.6675 84.1309 52.836 85.2948 55.2724 85.2948H58.2368V89.323H54.0529C49.0347 89.323 46.2565 86.7511 46.2565 81.7521H46.259V81.7546Z" fill="black"/>
<path d="M60.2871 81.1231V66.858H65.7441V80.0557C65.7441 83.8399 66.6702 86.023 69.5938 86.023C72.7113 86.023 74.8059 83.4028 74.8059 79.86V66.8555H80.2628V89.3218H74.8059V85.6825H74.612C72.9562 88.4958 70.3745 90.0004 67.3539 90.0004C63.3103 90.0004 60.2897 87.4284 60.2897 81.1206H60.2871V81.1231Z" fill="black"/>
<path d="M83.1354 85.2962H87.3856V70.8837H83.1354V66.8555H92.7916V72.2408H92.9855C94.108 68.7946 96.6872 66.8555 100.925 66.8555H102.535V71.7071H98.8812C94.7407 71.7071 92.7916 73.6487 92.7916 77.8701V85.2936H100.537V89.3218H83.1328V85.2936H83.1354V85.2962Z" fill="black"/>
<path d="M103.561 78.1115C103.561 71.1226 107.117 66.2227 112.622 66.2227C115.934 66.2227 118.128 68.116 119.345 70.7362H119.539V66.8555H124.996V89.3218H119.539V85.441H119.345C117.883 88.595 115.592 90.0004 112.477 90.0004C107.117 90.0004 103.563 85.1005 103.563 78.1115H103.561ZM114.278 86.0205C117.347 86.0205 119.541 82.9148 119.541 78.0632C119.541 73.2116 117.35 70.1543 114.278 70.1543C111.206 70.1543 108.966 73.2599 108.966 78.0632C108.966 82.8665 111.109 86.0205 114.278 86.0205Z" fill="black"/>
</svg>
